<?xml version="1.0" standalone="no"?>
<!DOCTYPE svg PUBLIC "-//W3C//DTD SVG 20010904//EN"
 "http://www.w3.org/TR/2001/REC-SVG-20010904/DTD/svg10.dtd">
<svg version="1.0" xmlns="http://www.w3.org/2000/svg"
 width="20pt" height="22pt" viewBox="0 0 225.000000 225.000000"
 preserveAspectRatio="xMidYMid meet">

<g transform="translate(0.000000,225.000000) scale(0.100000,-0.100000)"
fill="#000000" stroke="none">
<path d="M64 2131 c-61 -37 -79 -126 -39 -187 30 -46 63 -59 168 -64 l99 -5
24 -60 c14 -33 47 -126 74 -207 93 -278 206 -535 334 -757 l65 -113 -19 -39
c-40 -78 -15 -192 54 -244 18 -13 55 -30 83 -36 l51 -12 -19 -31 c-21 -35 -26
-117 -8 -163 25 -68 95 -113 174 -113 105 0 178 69 188 175 2 17 18 54 36 82
l34 53 147 0 148 0 -19 -37 c-59 -117 17 -260 145 -271 29 -2 70 1 89 7 64 21
127 112 127 183 0 25 68 128 84 128 23 0 66 59 66 91 0 17 -11 41 -27 59 -23
25 -38 32 -84 37 -44 4 -59 2 -72 -11 -30 -30 -6 -54 56 -58 48 -3 52 -5 52
-28 l0 -25 -575 -3 c-316 -1 -585 0 -597 3 -36 8 -81 61 -88 104 -7 42 14 108
37 115 26 8 128 14 128 8 0 -4 -20 -17 -43 -28 -46 -23 -64 -56 -54 -96 12
-47 30 -48 526 -46 435 3 465 4 475 21 9 15 7 21 -8 33 -17 12 -96 14 -480 15
l-461 1 70 33 c102 49 225 75 435 91 329 25 618 64 657 90 31 19 46 53 72 159
53 210 91 494 77 568 -11 60 -36 72 -216 111 -441 94 -984 167 -1360 183
l-161 6 -15 36 c-13 30 -14 44 -4 87 11 45 10 56 -8 97 -31 70 -53 77 -234 77
-132 0 -157 -3 -184 -19z m370 -256 c5 -14 -27 -35 -53 -35 -17 0 -19 39 -2
43 33 9 49 7 55 -8z m369 -100 c336 -25 665 -69 997 -131 245 -46 363 -73 375
-85 39 -39 -63 -651 -114 -678 -71 -38 -755 -101 -1098 -101 l-122 0 -51 86
c-69 117 -158 297 -219 440 -69 166 -162 444 -155 466 5 16 17 18 97 18 51 0
181 -7 290 -15z m471 -1387 c-32 -37 -57 -56 -103 -78 -57 -28 -67 -18 -51 49
l12 51 81 0 80 0 -19 -22z m701 -2 c-30 -46 -138 -107 -157 -88 -5 5 -4 31 3
60 l11 52 79 0 79 0 -15 -24z"/>
<path d="M504 1709 c-10 -17 27 -129 47 -140 29 -15 50 14 37 52 -6 16 -8 32
-5 35 7 8 310 -15 317 -24 6 -6 40 -157 40 -175 0 -4 -65 -7 -144 -7 -134 0
-145 1 -151 19 -14 44 -65 51 -65 9 0 -66 264 -616 303 -631 21 -8 494 12 677
28 228 21 441 52 457 68 19 19 70 254 90 410 14 119 15 140 2 152 -26 26 -542
120 -894 164 -358 45 -696 64 -711 40z m678 -100 c60 -6 114 -17 122 -23 8 -7
16 -40 19 -85 l6 -74 -157 8 c-86 4 -158 8 -160 10 -3 3 -42 173 -42 183 0 3
24 2 53 -1 28 -3 100 -11 159 -18z m378 -54 c80 -14 146 -25 146 -25 2 0 -8
-134 -10 -137 -2 -2 -300 27 -302 30 -1 1 -5 37 -9 80 -8 92 -26 86 175 52z
m380 -70 l105 -21 3 -38 c5 -62 -5 -89 -31 -82 -12 3 -75 13 -141 23 l-118 16
6 36 c3 20 6 51 6 68 0 31 1 32 33 26 17 -3 79 -16 137 -28z m-984 -108 c6 -5
55 -239 52 -243 -2 -1 -49 -6 -106 -10 l-102 -7 -54 114 c-29 63 -57 125 -61
138 l-7 24 137 -6 c76 -4 140 -8 141 -10z m285 -13 l96 -6 9 -103 9 -103 -44
-6 c-24 -3 -87 -6 -140 -6 l-96 0 -23 108 c-12 59 -22 113 -22 120 0 10 14 12
58 8 31 -3 100 -8 153 -12z m394 -30 l55 -7 0 -88 0 -89 -134 0 -135 0 -5 43
c-3 23 -8 69 -12 101 l-6 59 91 -6 c49 -4 115 -10 146 -13z m260 -34 c66 -11
123 -20 128 -20 10 0 9 -20 -4 -80 l-11 -50 -129 0 c-129 0 -129 0 -129 24 0
46 13 146 19 146 3 0 60 -9 126 -20z m-215 -279 l0 -69 -42 -5 c-24 -4 -77 -9
-119 -13 l-76 -6 -6 38 c-11 62 -8 112 6 117 6 3 63 6 125 6 l112 1 0 -69z
m268 59 l44 0 -7 -37 c-3 -21 -10 -42 -14 -46 -8 -8 -169 -37 -208 -37 -20 0
-23 5 -23 43 0 23 3 53 7 66 6 23 8 24 81 17 41 -3 95 -6 120 -6z m-584 -42
c12 -94 12 -109 7 -112 -3 -2 -60 -5 -126 -7 l-120 -4 -11 53 c-7 29 -15 63
-18 77 -6 22 -3 24 31 28 21 2 82 4 135 5 l97 2 5 -42z m-325 -25 c6 -32 14
-68 17 -80 6 -22 4 -23 -69 -23 l-75 0 -36 64 c-20 35 -36 69 -36 75 0 6 30
12 68 14 37 2 79 4 93 5 24 2 27 -2 38 -55z"/>
</g>
</svg>
